<?xml version="1.0" encoding="utf-8"?>
<!-- Generator: Adobe Illustrator 23.0.0, SVG Export Plug-In . SVG Version: 6.00 Build 0)  -->
<svg version="1.1" id="Layer_1" xmlns="http://www.w3.org/2000/svg" xmlns:xlink="http://www.w3.org/1999/xlink" x="0px" y="0px"
	 viewBox="0 0 1232 305" style="enable-background:new 0 0 1232 305;" xml:space="preserve">
<style type="text/css">
	.st0{fill-rule:evenodd;clip-rule:evenodd;fill:#633685;}
</style>
<g>
	<path class="st0" d="M-1,110v109.5h21.9h22l0.3-39.3c0.3-38.6,0.3-39.3,2.6-43.9c2.8-5.6,8.8-11.3,15-14c3.4-1.5,6-1.9,11.2-1.6
		c7.7,0.4,12.8,3.2,16.8,9.2c4.9,7.2,5.2,10.2,5.2,51.3v38.3h22.5H139v-43.8c0-25.3-0.5-46.4-1.1-50.2c-2.4-15.2-10.9-26.4-25.2-33
		c-15.9-7.3-33.2-9.1-45.9-4.6c-6.3,2.2-17.7,9.4-20.7,13c-0.8,0.9-1.7,1.6-2.2,1.6S43,80.1,43,51.5v-51H21H-1V110z"/>
	<path class="st0" d="M221.8,86.5c-27.7,4.7-50.1,22.5-58.5,46.7c-2.4,6.9-2.7,9.3-2.8,20.8c0,14.6,2,23.3,7.7,33.4
		c4.5,7.8,14.9,18.4,23.2,23.6c15,9.3,37.2,13.8,57.3,11.6c20.5-2.2,35.2-8.9,48.4-22.1c13.4-13.3,18.9-26.7,18.9-46.1
		c0-17.6-5.1-31.3-16.3-43.5c-11.4-12.5-26.4-20.7-43.5-24C248.4,85.4,229.7,85.2,221.8,86.5z M247.7,125
		c7.7,2.3,13.6,7.4,17.4,15.1c2.8,5.7,3.3,7.6,3.2,14.2c0,9.8-2.7,16.4-9.2,22.5c-6.7,6.3-12,8-22.8,7.5c-10.4-0.5-14.9-2.5-21-9
		c-5.6-6.2-7.7-12.8-7.1-23.2c0.6-9.9,2.7-14.5,9.9-21C226.1,123.9,236.7,121.7,247.7,125z"/>
	<path class="st0" d="M411.8,86.6c-5.7,1.3-14.8,6.2-21.1,11.4l-5.7,4.6v-6.5v-6.6h-22.5H340v65v65h22.5H385v-41.3
		c0-38,0.2-41.5,1.9-45.2c2.2-4.7,6.4-8.9,10.4-10.4c4.1-1.6,14.2-1.3,18.4,0.4c5,2.1,7,4.1,10.2,10l2.6,5l0.3,40.7l0.3,40.8h22.5
		H474v-41.3c0-37.8,0.2-41.5,1.9-45.2c4-8.7,10-12,21.1-11.3c9,0.5,13.7,3.5,17.7,11.5l2.8,5.8l0.3,40.2l0.3,40.3h22h22l-0.3-50.3
		c-0.3-49.9-0.3-50.2-2.6-56c-6.8-16.6-22.5-26.5-44.2-27.4c-9-0.4-11.4-0.2-17,1.7c-8.5,2.8-15,7-23.2,14.8l-6.6,6.3l-3.1-4.4
		c-5.5-8.1-14.8-13.8-27.6-17.2C431.1,85.4,417.9,85.1,411.8,86.6z"/>
	<path class="st0" d="M638.2,87c-13.9,3.1-29.5,12.9-39.2,24.6c-10.5,12.6-15.2,26.2-15.2,43.4c0.1,19.4,5.6,32.1,20.1,46.5
		c10.6,10.6,18.6,15.5,30.7,18.8c13.8,3.9,31.1,3.7,46.9-0.3c8.9-2.3,21.3-8.7,27.7-14.4c5.5-5,12.8-13.9,12.8-15.8
		c0-0.4-7.2-4.4-15.9-8.8l-16-7.9l-5.1,4.8c-6.6,6.2-12.4,8.7-21.9,9.3c-17.5,1.2-30.5-7.5-32.6-22l-0.7-4.7h47.6H725v-6.9
		c0-8.6-2.4-22.4-5-29.1c-6.5-16.5-21.1-29.7-39.5-35.6c-6.6-2.2-10.4-2.7-22-3C648.7,85.6,642.6,86,638.2,87z M665.3,115.6
		c4.2,1.1,11.1,6.8,13.1,10.8c0.8,1.4,1.7,4.1,2.1,5.8l0.7,3.3h-25.1c-13.8,0-25.1-0.1-25.1-0.3s0.7-2.6,1.5-5.3
		c1.7-5.9,7.2-11.7,13-13.8C650.3,114.4,660,114.1,665.3,115.6z"/>
	<path class="st0" d="M816.8,87.9c-6.3,2.2-17.7,9.4-20.7,13c-2.4,2.9-3.1,1.7-3.1-4.9v-6.5h-22h-22v65v65h21.9h22l0.3-39.3
		c0.3-38.6,0.3-39.3,2.6-43.9c2.8-5.6,8.8-11.3,15-14c3.4-1.5,6-1.9,11.2-1.6c7.7,0.4,12.4,2.9,16.6,9c5.1,7.3,5.4,10,5.4,51.5v38.3
		h22.5H889v-43.8c0-25.3-0.5-46.4-1.1-50.2c-2.4-15.2-10.9-26.4-25.2-33C846.8,85.2,829.5,83.4,816.8,87.9z"/>
	<path class="st0" d="M957.1,87.5c-22.7,6.1-40.1,25.3-45.6,50.4c-1.4,6.1-1.6,10.6-1.2,20c0.8,19.4,6,32.4,18,45.3
		c12.6,13.5,26.3,19.5,45.2,19.7c8.7,0,12.4-0.4,18-2.1c8.1-2.6,17.4-7.9,22.8-13.1l3.7-3.6v7.7v7.7h22h22v-65v-65h-22.5h-22.4
		l-0.3,5.6l-0.3,5.6l-4-3.2c-9.9-7.9-19.6-11.1-35.5-11.6C966.7,85.6,963.2,85.8,957.1,87.5z M997.7,125c6.1,1.8,14.4,8.9,17.5,14.9
		c3,5.7,3.7,18.5,1.4,25.3c-2.1,6.2-7.3,12.5-13.4,16c-3.9,2.3-6,2.8-13.8,3.1c-8.2,0.4-9.8,0.1-14.6-2c-13.4-6.2-20.2-21-16.4-35.8
		C962.9,128.9,979.8,119.7,997.7,125z"/>
	<path class="st0" d="M1092.2,134.7l0.3,49.3l3.2,6.7c3.8,8,10.7,15.7,17.7,19.7c12.6,7.3,32.2,10.9,44.6,8.2
		c7.4-1.6,16.7-6.3,22.7-11.7c2.8-2.4,5.4-4.4,5.7-4.4c0.3,0,0.6,23,0.6,51v51l22.3-0.2l22.2-0.3l0.3-109.3l0.2-109.2h-22.5h-22.4
		l-0.3,39.7c-0.3,38.6-0.4,39.9-2.5,43.8c-4.9,9.2-14.7,15.4-24.1,15.5c-9.6,0-16.6-4.5-20.8-13.5c-2.4-5-2.4-5-2.4-45.3V85.5h-22.5
		h-22.6L1092.2,134.7z"/>
</g>
</svg>
